HIERARCHY
ROOT Hips
{
	OFFSET 0.00 0.00 0.00
	CHANNELS 6 Xposition Yposition Zposition Xrotation Yrotation Zrotation
	JOINT Spine
	{
		OFFSET 0.00000 7.06766 0.00000
		CHANNELS 3 Xrotation Yrotation Zrotation
		JOINT Head
		{
			OFFSET 0.00000 15.03989 0.00000
			CHANNELS 3 Xrotation Yrotation Zrotation
			End Site
			{
				OFFSET 0.00000 4.52755 0.00000
			}
		}
		JOINT LeftShoulder
		{
			OFFSET 0.00000 10.53037 0.00000
			CHANNELS 3 Xrotation Yrotation Zrotation
			JOINT LeftArm
			{
				OFFSET 7.02886 0.00000 0.00000
				CHANNELS 3 Xrotation Yrotation Zrotation
				JOINT LeftForeArm
				{
					OFFSET 10.79770 0.00000 0.00000
					CHANNELS 3 Yrotation Zrotation Xrotation
					JOINT LeftHand
					{
						OFFSET 7.90744 0.00000 0.00000
						CHANNELS 3 Xrotation Yrotation Zrotation
						JOINT LeftHandThumb1
						{
							OFFSET 0.00000 0.00000 0.00000
							CHANNELS 3 Xrotation Zrotation Yrotation
							End Site
							{
								OFFSET 0.00000 0.00000 3.93700
							}
						}
						End Site
						{
							OFFSET 3.93700 0.00000 0.00000
						}
					}
				}
			}
		}
		JOINT RightShoulder
		{
			OFFSET 0.00000 10.53037 0.00000
			CHANNELS 3 Xrotation Yrotation Zrotation
			JOINT RightArm
			{
				OFFSET -7.02886 0.00000 0.00000
				CHANNELS 3 Xrotation Yrotation Zrotation
				JOINT RightForeArm
				{
					OFFSET -10.79770 0.00000 0.00000
					CHANNELS 3 Yrotation Zrotation Xrotation
					JOINT RightHand
					{
						OFFSET -7.90744 0.00000 0.00000
						CHANNELS 3 Xrotation Yrotation Zrotation
						JOINT RightHandThumb1
						{
							OFFSET 0.00000 0.00000 0.00000
							CHANNELS 3 Xrotation Zrotation Yrotation
							End Site
							{
								OFFSET 0.00000 0.00000 3.93700
							}
						}
						End Site
						{
							OFFSET -3.93700 0.00000 0.00000
						}
					}
				}
			}
		}
	}
	JOINT LeftUpLeg
	{
		OFFSET 4.01300 0.00000 0.00000
		CHANNELS 3 Xrotation Yrotation Zrotation
		JOINT LeftLeg
		{
			OFFSET 0.00000 -16.89976 0.00000
			CHANNELS 3 Xrotation Yrotation Zrotation
			JOINT LeftFoot
			{
				OFFSET 0.00000 -17.38918 0.00000
				CHANNELS 3 Xrotation Yrotation Zrotation
				JOINT LeftToeBase
				{
					OFFSET 0.00000 -1.27456 4.75673
					CHANNELS 3 Xrotation Yrotation Zrotation
					End Site
					{
						OFFSET 0.00000 0.00000 2.95275
					}
				}
			}
		}
	}
	JOINT RightUpLeg
	{
		OFFSET -4.01300 0.00000 0.00000
		CHANNELS 3 Xrotation Yrotation Zrotation
		JOINT RightLeg
		{
			OFFSET 0.00000 -16.89976 0.00000
			CHANNELS 3 Xrotation Yrotation Zrotation
			JOINT RightFoot
			{
				OFFSET 0.00000 -17.38918 0.00000
				CHANNELS 3 Xrotation Yrotation Zrotation
				JOINT RightToeBase
				{
					OFFSET 0.00000 -1.27456 4.75673
					CHANNELS 3 Xrotation Yrotation Zrotation
					End Site
					{
						OFFSET 0.00000 0.00000 2.95275
					}
				}
			}
		}
	}
}
MOTION
Frames: 14
Frame Time: 0.008333
 19.0686 8.6683 -13.4946 -179.0013 3.5454 178.5255 79.7672 1.9379 -3.1501 -11.9633 -0.7496 2.3380 -56.2473 -43.3490 13.5262 -5.8096 -52.2687 -18.4034 0.8493 0.0000 0.8784 -1.7213 5.3516 17.8589 33.1476 -0.0000 26.2537 -16.7548 25.1496 -35.2251 -48.9581 38.6343 19.9304 10.0907 -0.0000 25.4951 -2.3808 -9.9268 -13.5596 32.8623 0.0000 -24.3270 -117.6353 -6.6319 29.4083 149.0399 0.0000 -0.0000 -47.6093 19.1126 11.8108 24.8617 -0.0000 0.0000 -117.0794 3.4149 -21.2137 146.0011 -0.0000 0.0000 -46.8911 -24.3259 -14.3049 24.6901 -0.0000 -0.0000
 19.0594 8.6388 -13.5010 -179.0169 3.5298 178.5314 79.6723 1.9734 -3.1291 -11.8876 -0.7877 2.2814 -56.3378 -43.3595 13.4313 -6.0277 -52.2780 -18.7405 0.9340 0.0000 1.0489 -1.7450 5.4163 17.8876 33.1476 -0.0000 26.2537 -16.5876 25.0300 -35.2179 -48.6000 38.7962 19.6112 10.1596 -0.0000 25.1457 -2.3939 -9.9814 -13.5601 32.8623 0.0000 -24.3270 -117.7562 -6.6373 29.3053 149.1230 0.0000 0.0000 -47.6501 19.1476 11.9154 24.8957 0.0000 0.0000 -117.1848 3.5237 -21.1774 146.0714 0.0000 0.0000 -46.8841 -24.3061 -14.3650 24.8441 -0.0000 0.0000
 19.0570 8.6279 -13.5066 -178.9860 3.5657 178.5204 79.6974 2.0055 -3.1714 -11.8971 -0.7807 2.2335 -56.5325 -43.4092 13.2950 -5.9873 -52.2383 -18.8693 0.9344 0.0000 1.0912 -1.6981 5.3125 17.7547 33.1476 -0.0000 26.2537 -16.6704 25.1025 -35.2268 -48.8465 38.6327 19.9017 10.1443 -0.0000 25.4701 -2.3832 -9.9596 -13.5302 32.8623 0.0000 -24.3270 -117.7521 -6.6730 29.2986 149.1707 -0.0000 -0.0000 -47.6677 19.1831 11.9216 24.8645 0.0000 -0.0000 -117.1889 3.5370 -21.0870 146.1007 -0.0000 -0.0000 -46.8691 -24.3350 -14.3816 24.7931 0.0000 -0.0000
 19.0519 8.6246 -13.5152 -178.8794 3.5403 178.5020 79.8391 1.9537 -3.1256 -11.9801 -0.7187 2.1414 -56.4442 -43.3359 13.3647 -5.0102 -52.3756 -18.0302 0.7714 -0.0000 0.4032 -1.7502 5.5182 17.6278 33.1476 -0.0000 26.2537 -16.7529 25.2382 -35.2588 -48.8000 38.5590 19.9421 10.1395 -0.0000 25.5061 -2.3776 -9.9621 -13.4963 32.8623 0.0000 -24.3270 -117.6617 -6.6592 29.2399 149.2060 -0.0000 0.0000 -47.6724 19.2399 11.8944 24.8985 0.0000 -0.0000 -117.0792 3.5748 -21.0923 146.1292 0.0000 0.0000 -46.8604 -24.3798 -14.3159 24.7989 -0.0000 0.0000
 19.0475 8.5961 -13.5213 -178.8879 3.5540 178.4824 79.7462 1.9538 -3.1187 -11.9030 -0.6750 2.0770 -56.4153 -43.2862 13.3506 -4.9584 -52.4019 -18.0601 0.7903 -0.0000 0.4318 -1.6958 5.3609 17.5822 33.1476 -0.0000 26.2537 -16.7242 25.2570 -35.2458 -48.8554 38.5853 20.0514 10.1089 -0.0000 25.5353 -2.3591 -9.9233 -13.4449 32.8623 0.0000 -24.3270 -117.7642 -6.6825 29.1791 149.2771 -0.0000 -0.0000 -47.7585 19.2953 12.0760 24.8844 -0.0000 0.0000 -117.1695 3.6239 -21.0373 146.1934 0.0000 0.0000 -46.8625 -24.3549 -14.4049 24.9083 0.0000 -0.0000
 19.0427 8.5778 -13.5303 -178.8491 3.5622 178.4606 79.7526 1.9758 -3.1176 -11.9033 -0.6837 2.0355 -56.3758 -43.2395 13.3598 -5.0212 -52.4450 -18.1200 0.7990 -0.0000 0.3160 -1.6889 5.3799 17.4573 33.1476 -0.0000 26.2537 -16.7271 25.2587 -35.2387 -48.8404 38.5970 20.0939 10.1114 -0.0000 25.5300 -2.3703 -9.9244 -13.5050 32.8623 0.0000 -24.3270 -117.7793 -6.7590 29.1419 149.3587 -0.0000 -0.0000 -47.7698 19.2385 12.0894 25.0390 0.0000 -0.0000 -117.1783 3.6595 -21.0069 146.2429 -0.0000 -0.0000 -46.8665 -24.3506 -14.4310 24.8758 0.0000 -0.0000
 19.0380 8.5592 -13.5399 -178.8102 3.5505 178.4485 79.7515 2.0001 -3.1078 -11.8917 -0.6817 2.0281 -56.5839 -43.3240 13.2309 -5.7332 -52.2593 -18.9338 0.8884 0.0000 0.9643 -1.6880 5.3855 17.4315 33.1476 -0.0000 26.2537 -16.7257 25.2460 -35.1958 -48.7614 38.6465 20.0703 10.1134 -0.0000 25.5509 -2.3730 -9.9347 -13.5068 32.8623 0.0000 -24.3270 -117.8110 -6.7866 29.0926 149.4351 -0.0000 0.0000 -47.7530 19.2493 12.1084 25.0398 0.0000 0.0000 -117.1965 3.7209 -20.9936 146.3056 -0.0000 0.0000 -46.8313 -24.3489 -14.4209 24.8976 0.0000 -0.0000
 19.0349 8.5434 -13.5478 -178.7445 3.5546 178.4469 79.7940 2.0063 -3.1222 -11.9006 -0.6837 2.0031 -56.5719 -43.3389 13.2241 -5.2331 -52.3179 -18.5650 0.8033 -0.0000 0.6644 -1.7028 5.4378 17.4166 33.1476 -0.0000 26.2537 -16.6512 25.2013 -35.2048 -48.4670 38.7249 19.8259 10.1796 -0.0000 25.4004 -2.3562 -9.9607 -13.3808 32.8623 0.0000 -24.3270 -117.8332 -6.7598 29.0587 149.4872 -0.0000 -0.0000 -47.7614 19.4126 12.1286 24.8952 0.0000 0.0000 -117.1821 3.7626 -20.9682 146.3554 0.0000 -0.0000 -46.8341 -24.3599 -14.4260 24.8506 -0.0000 -0.0000
 19.0299 8.5386 -13.5584 -178.6122 3.5182 178.4489 79.9611 2.0137 -3.0970 -12.0034 -0.7166 1.9819 -56.6563 -43.4009 13.1719 -4.9955 -52.2946 -18.4169 0.7804 -0.0000 0.6070 -1.7075 5.4410 17.4525 33.1476 -0.0000 26.2537 -16.4442 25.1180 -35.2692 -47.7060 38.8871 19.0560 10.3101 -0.0000 24.6507 -2.3827 -10.0462 -13.4160 32.8623 0.0000 -24.3270 -117.6981 -6.7647 29.0205 149.5294 -0.0000 0.0000 -47.7643 19.3676 12.0690 24.9627 0.0000 -0.0000 -117.0599 3.8230 -21.0079 146.3991 -0.0000 -0.0000 -46.8205 -24.3679 -14.3696 24.9327 0.0000 -0.0000
 19.0279 8.5243 -13.5656 -178.5628 3.5269 178.4447 79.9846 2.0125 -3.1163 -12.0097 -0.7063 1.9781 -56.6544 -43.4103 13.1411 -5.2800 -52.2519 -18.6658 0.8366 -0.0000 0.7979 -1.7179 5.4215 17.6110 33.1476 -0.0000 26.2537 -16.4078 25.1287 -35.2605 -47.7838 38.8603 19.0971 10.2886 -0.0000 24.7963 -2.3829 -10.0183 -13.4529 32.8623 0.0000 -24.3270 -117.6965 -6.7890 29.0109 149.5861 -0.0000 0.0000 -47.7653 19.3707 12.0977 24.9809 -0.0000 -0.0000 -117.0598 3.8509 -20.9818 146.4458 -0.0000 -0.0000 -46.8126 -24.3735 -14.3931 24.8479 -0.0000 0.0000
 19.0236 8.5040 -13.5755 -178.5306 3.5074 178.4414 79.9426 1.9667 -3.0876 -11.9345 -0.6525 1.9549 -56.7081 -43.3855 13.1015 -5.5803 -52.2022 -19.0429 0.8773 0.0000 1.0375 -1.7114 5.4098 17.5839 33.1476 -0.0000 26.2537 -16.6546 25.2818 -35.1934 -48.4296 38.6744 19.8900 10.1500 -0.0000 25.5719 -2.3847 -9.9164 -13.5948 32.8623 0.0000 -24.3270 -117.7433 -6.8034 28.9604 149.6576 -0.0000 -0.0000 -47.7755 19.3905 12.1231 24.9830 -0.0000 0.0000 -117.0932 3.9155 -20.9988 146.5140 0.0000 -0.0000 -46.8018 -24.3541 -14.3934 24.8350 0.0000 -0.0000
 19.0220 8.4737 -13.5828 -178.5481 3.5303 178.4493 79.8145 1.9709 -3.1311 -11.8227 -0.6651 1.9916 -56.7166 -43.3944 13.0675 -5.9125 -52.1903 -19.4376 0.9362 0.0000 1.2683 -1.7194 5.4276 17.6069 33.1476 -0.0000 26.2537 -16.6636 25.2670 -35.1213 -48.4057 38.7261 19.9819 10.1194 -0.0000 25.6678 -2.3909 -9.9001 -13.6502 32.8623 0.0000 -24.3270 -117.8676 -6.8518 28.9540 149.7440 0.0000 -0.0000 -47.7962 19.3928 12.1909 25.0207 0.0000 -0.0000 -117.2186 3.9682 -20.9522 146.5866 -0.0000 0.0000 -46.8369 -24.3307 -14.5322 24.9450 -0.0000 -0.0000
 19.0224 8.4608 -13.5909 -178.4932 3.5535 178.4367 79.8349 1.9695 -3.1638 -11.8108 -0.6683 1.9945 -56.8040 -43.4229 13.0279 -5.9209 -52.1635 -19.5752 0.9386 0.0000 1.3219 -1.7234 5.4227 17.6606 33.1476 -0.0000 26.2537 -16.7099 25.3094 -35.1073 -48.6968 38.6250 20.2725 10.0881 -0.0000 26.0799 -2.3664 -9.8967 -13.5196 32.8623 0.0000 -24.3270 -117.8855 -6.8544 28.9669 149.7945 0.0000 0.0000 -47.8424 19.5399 12.1795 25.0333 -0.0000 -0.0000 -117.2159 3.9704 -20.9271 146.6341 -0.0000 -0.0000 -46.8044 -24.3206 -14.5197 24.9724 -0.0000 0.0000
 19.0228 8.4572 -13.5985 -178.3968 3.5487 178.4214 79.9437 1.9191 -3.1620 -11.8763 -0.6266 1.9859 -56.6986 -43.3865 13.0954 -4.9811 -52.2907 -18.7403 0.7913 -0.0000 0.7508 -1.7272 5.4791 17.5263 33.1476 -0.0000 26.2537 -16.7907 25.4033 -35.1089 -48.7022 38.5774 20.3446 10.0881 -0.0000 26.0938 -2.3628 -9.8719 -13.5318 32.8623 0.0000 -24.3270 -117.7968 -6.8720 28.9668 149.8218 -0.0000 0.0000 -47.8374 19.5457 12.1569 24.9515 0.0000 0.0000 -117.1382 3.9643 -20.9341 146.6626 0.0000 -0.0000 -46.7896 -24.3628 -14.4459 24.8721 0.0000 -0.0000
